<svg width="1011.68" height="1034.6599999999999" xmlns="http://www.w3.org/2000/svg">
  <rect width="100%" height="100%" fill="white"/>
  <circle cx="458.48" cy="462.12" r="2" fill="black"/>
  <circle cx="458.6" cy="462.22" r="2" fill="black"/>
  <circle cx="458.48" cy="461.94" r="2" fill="black"/>
  <circle cx="458.7" cy="461.76" r="2" fill="black"/>
  <circle cx="458.68" cy="461.34" r="2" fill="black"/>
  <circle cx="458.46" cy="461.44" r="2" fill="black"/>
  <circle cx="458.1" cy="461.94" r="2" fill="black"/>
  <circle cx="457.84" cy="461.36" r="2" fill="black"/>
  <circle cx="457.24" cy="461.18" r="2" fill="black"/>
  <circle cx="457.56" cy="462.16" r="2" fill="black"/>
  <circle cx="456.7" cy="462.34" r="2" fill="black"/>
  <circle cx="457.46" cy="462.5" r="2" fill="black"/>
  <circle cx="457.18" cy="462.84" r="2" fill="black"/>
  <circle cx="456.7" cy="463.4" r="2" fill="black"/>
  <circle cx="457.06" cy="463.82" r="2" fill="black"/>
  <circle cx="457.62" cy="463.46" r="2" fill="black"/>
  <circle cx="457.5" cy="463.98" r="2" fill="black"/>
  <circle cx="458.16" cy="463.52" r="2" fill="black"/>
  <circle cx="457.88" cy="462.78" r="2" fill="black"/>
  <circle cx="457.46" cy="463.12" r="2" fill="black"/>
  <circle cx="457.66" cy="462.66" r="2" fill="black"/>
  <circle cx="458.94" cy="460.18" r="2" fill="black"/>
  <circle cx="460.76" cy="460.1" r="2" fill="black"/>
  <circle cx="459.92" cy="460.24" r="2" fill="black"/>
  <circle cx="461.38" cy="460.42" r="2" fill="black"/>
  <circle cx="461.14" cy="461.56" r="2" fill="black"/>
  <circle cx="459.86" cy="461.82" r="2" fill="black"/>
  <circle cx="459.16" cy="462.64" r="2" fill="black"/>
  <circle cx="459.18" cy="462.0" r="2" fill="black"/>
  <circle cx="459.14" cy="461.72" r="2" fill="black"/>
  <circle cx="459.32" cy="463.62" r="2" fill="black"/>
  <circle cx="458.96" cy="464.06" r="2" fill="black"/>
  <circle cx="458.56" cy="465.5" r="2" fill="black"/>
  <circle cx="461.36" cy="467.08" r="2" fill="black"/>
  <circle cx="457.98" cy="464.6" r="2" fill="black"/>
  <circle cx="457.16" cy="464.6" r="2" fill="black"/>
  <circle cx="456.64" cy="464.48" r="2" fill="black"/>
  <circle cx="455.88" cy="464.22" r="2" fill="black"/>
  <circle cx="455.96" cy="463.04" r="2" fill="black"/>
  <circle cx="455.72" cy="463.26" r="2" fill="black"/>
  <circle cx="456.16" cy="461.38" r="2" fill="black"/>
  <circle cx="457.34" cy="459.82" r="2" fill="black"/>
  <circle cx="458.56" cy="459.6" r="2" fill="black"/>
  <circle cx="461.08" cy="458.34" r="2" fill="black"/>
  <circle cx="465.48" cy="457.58" r="2" fill="black"/>
  <circle cx="467.32" cy="451.36" r="2" fill="black"/>
  <circle cx="472.98" cy="455.46" r="2" fill="black"/>
  <circle cx="459.06" cy="458.18" r="2" fill="black"/>
  <circle cx="482.3" cy="448.32" r="2" fill="black"/>
  <circle cx="474.64" cy="440.58" r="2" fill="black"/>
  <circle cx="462.88" cy="448.62" r="2" fill="black"/>
  <circle cx="458.86" cy="456.18" r="2" fill="black"/>
  <circle cx="456.14" cy="457.32" r="2" fill="black"/>
  <circle cx="453.24" cy="460.86" r="2" fill="black"/>
  <circle cx="453.9" cy="467.22" r="2" fill="black"/>
  <circle cx="455.5" cy="470.0" r="2" fill="black"/>
  <circle cx="455.78" cy="472.92" r="2" fill="black"/>
  <circle cx="473.68" cy="468.26" r="2" fill="black"/>
  <circle cx="461.84" cy="483.16" r="2" fill="black"/>
  <circle cx="449.58" cy="486.24" r="2" fill="black"/>
  <circle cx="438.3" cy="481.38" r="2" fill="black"/>
  <circle cx="448.54" cy="459.46" r="2" fill="black"/>
  <circle cx="452.9" cy="450.4" r="2" fill="black"/>
  <circle cx="463.24" cy="438.92" r="2" fill="black"/>
  <circle cx="456.34" cy="465.4" r="3" fill="red"/>
  <circle cx="459.4" cy="461.96" r="2" fill="black"/>
  <circle cx="460.0" cy="461.52" r="2" fill="black"/>
  <circle cx="406.2" cy="984.66" r="2" fill="black"/>
  <circle cx="884.74" cy="194.3" r="2" fill="black"/>
  <circle cx="810.24" cy="325.72" r="2" fill="black"/>
  <circle cx="728.86" cy="422.1" r="2" fill="black"/>
  <circle cx="961.68" cy="10.0" r="2" fill="black"/>
  <circle cx="649.56" cy="497.36" r="2" fill="black"/>
  <circle cx="589.42" cy="522.12" r="2" fill="black"/>
  <circle cx="313.14" cy="918.12" r="2" fill="black"/>
  <circle cx="539.56" cy="547.4" r="2" fill="black"/>
  <circle cx="491.26" cy="561.98" r="2" fill="black"/>
  <circle cx="462.52" cy="548.62" r="2" fill="black"/>
  <circle cx="521.6800000000001" cy="430.88" r="2" fill="black"/>
  <circle cx="535.8" cy="401.36" r="2" fill="black"/>
  <circle cx="508.12" cy="449.38" r="2" fill="black"/>
  <circle cx="495.6" cy="459.54" r="2" fill="black"/>
  <circle cx="544.98" cy="370.14" r="2" fill="black"/>
  <circle cx="483.7" cy="474.18" r="2" fill="black"/>
  <circle cx="273.1" cy="827.52" r="2" fill="black"/>
  <circle cx="435.92" cy="545.48" r="2" fill="black"/>
  <circle cx="472.6" cy="477.54" r="2" fill="black"/>
  <circle cx="465.8" cy="476.6" r="2" fill="black"/>
  <circle cx="546.52" cy="339.02" r="2" fill="black"/>
  <circle cx="462.16" cy="476.96" r="2" fill="black"/>
  <circle cx="430.8" cy="528.54" r="2" fill="black"/>
  <circle cx="469.56" cy="455.66" r="2" fill="black"/>
  <circle cx="467.8" cy="458.16" r="2" fill="black"/>
  <circle cx="465.64" cy="460.72" r="2" fill="black"/>
  <circle cx="471.64" cy="450.3" r="2" fill="black"/>
  <circle cx="456.48" cy="475.86" r="2" fill="black"/>
  <circle cx="462.38" cy="463.6" r="2" fill="black"/>
  <circle cx="472.58" cy="445.06" r="2" fill="black"/>
  <circle cx="462.8" cy="461.32" r="2" fill="black"/>
  <circle cx="460.62" cy="463.7" r="3" fill="red"/>
  <circle cx="454.22" cy="473.64" r="2" fill="black"/>
  <circle cx="461.68" cy="460.74" r="2" fill="black"/>
  <circle cx="460.44" cy="462.54" r="2" fill="black"/>
  <circle cx="463.56" cy="457.46" r="2" fill="black"/>
  <circle cx="460.4" cy="461.14" r="2" fill="black"/>
  <circle cx="458.94" cy="463.14" r="2" fill="black"/>
  <circle cx="460.98" cy="459.54" r="2" fill="black"/>
  <circle cx="459.34" cy="462.32" r="2" fill="black"/>
  <circle cx="456.14" cy="467.32" r="2" fill="black"/>
  <circle cx="458.86" cy="462.6" r="2" fill="black"/>
  <circle cx="460.14" cy="460.32" r="2" fill="black"/>
  <circle cx="459.44" cy="461.38" r="2" fill="black"/>
  <circle cx="458.98" cy="462.1" r="2" fill="black"/>
  <circle cx="458.64" cy="462.6" r="2" fill="black"/>
  <circle cx="458.82" cy="462.28" r="2" fill="black"/>
  <circle cx="459.26" cy="461.52" r="2" fill="black"/>
  <circle cx="458.96" cy="461.92" r="2" fill="black"/>
  <circle cx="457.52" cy="464.28" r="2" fill="black"/>
  <circle cx="459.48" cy="460.9" r="2" fill="black"/>
  <circle cx="458.78" cy="462.1" r="2" fill="black"/>
  <circle cx="459.02" cy="461.68" r="2" fill="black"/>
  <circle cx="459.24" cy="461.26" r="2" fill="black"/>
  <circle cx="458.52" cy="462.42" r="2" fill="black"/>
  <circle cx="472.16" cy="439.24" r="2" fill="black"/>
  <circle cx="458.02" cy="463.28" r="2" fill="black"/>
  <circle cx="458.82" cy="461.84" r="2" fill="black"/>
  <circle cx="461.58" cy="457.06" r="3" fill="red"/>
  <circle cx="459.0" cy="461.42" r="2" fill="black"/>
  <circle cx="458.88" cy="461.62" r="2" fill="black"/>
  <circle cx="458.28" cy="462.54" r="2" fill="black"/>
  <circle cx="458.02" cy="462.9" r="2" fill="black"/>
  <circle cx="459.12" cy="460.98" r="2" fill="black"/>
  <circle cx="458.84" cy="461.44" r="2" fill="black"/>
  <circle cx="453.36" cy="470.78" r="2" fill="black"/>
  <circle cx="458.34" cy="462.28" r="2" fill="black"/>
  <circle cx="458.9" cy="461.22" r="2" fill="black"/>
  <circle cx="458.54" cy="461.74" r="2" fill="black"/>
  <circle cx="458.6" cy="461.54" r="2" fill="black"/>
  <circle cx="458.22" cy="462.14" r="2" fill="black"/>
  <circle cx="458.08" cy="462.34" r="2" fill="black"/>
  <circle cx="459.54" cy="459.8" r="2" fill="black"/>
  <circle cx="458.76" cy="461.14" r="2" fill="black"/>
  <circle cx="458.28" cy="461.92" r="2" fill="black"/>
  <circle cx="458.38" cy="461.72" r="2" fill="black"/>
  <circle cx="457.84" cy="462.5" r="2" fill="black"/>
  <circle cx="458.0" cy="462.16" r="2" fill="black"/>
  <circle cx="460.16" cy="458.4" r="2" fill="black"/>
  <circle cx="458.7" cy="460.86" r="2" fill="black"/>
  <circle cx="458.48" cy="461.2" r="2" fill="black"/>
  <circle cx="458.14" cy="461.74" r="2" fill="black"/>
  <circle cx="458.28" cy="461.34" r="2" fill="black"/>
  <circle cx="457.88" cy="461.88" r="2" fill="black"/>
  <circle cx="457.14" cy="463.14" r="2" fill="black"/>
  <circle cx="458.52" cy="460.24" r="2" fill="black"/>
  <circle cx="457.6" cy="461.72" r="2" fill="black"/>
  <circle cx="456.18" cy="464.04" r="2" fill="black"/>
  <circle cx="458.02" cy="460.86" r="2" fill="black"/>
  <circle cx="457.18" cy="462.08" r="2" fill="black"/>
  <circle cx="458.4" cy="459.42" r="2" fill="black"/>
  <circle cx="452.92" cy="468.72" r="2" fill="black"/>
  <circle cx="456.82" cy="461.78" r="2" fill="black"/>
  <circle cx="458.92" cy="458.0" r="2" fill="black"/>
  <circle cx="456.26" cy="462.36" r="2" fill="black"/>
  <circle cx="454.42" cy="464.64" r="3" fill="red"/>
  <circle cx="455.34" cy="461.88" r="2" fill="black"/>
  <circle cx="458.02" cy="456.88" r="2" fill="black"/>
  <circle cx="456.4" cy="459.12" r="2" fill="black"/>
  <circle cx="453.46" cy="463.18" r="2" fill="black"/>
  <circle cx="422.08" cy="513.3" r="2" fill="black"/>
  <circle cx="458.1" cy="454.5" r="2" fill="black"/>
  <circle cx="469.72" cy="433.28" r="2" fill="black"/>
  <circle cx="455.52" cy="454.54" r="2" fill="black"/>
  <circle cx="451.94" cy="456.18" r="2" fill="black"/>
  <circle cx="423.64" cy="499.18" r="2" fill="black"/>
  <circle cx="447.84" cy="458.38" r="2" fill="black"/>
  <circle cx="541.12" cy="305.34" r="2" fill="black"/>
  <circle cx="464.48" cy="427.94" r="2" fill="black"/>
  <circle cx="441.5" cy="463.58" r="2" fill="black"/>
  <circle cx="428.54" cy="488.6" r="2" fill="black"/>
  <circle cx="437.62" cy="467.94" r="2" fill="black"/>
  <circle cx="435.96" cy="476.14" r="2" fill="black"/>
  <circle cx="455.08" cy="427.52" r="2" fill="black"/>
  <circle cx="440.52" cy="425.42" r="2" fill="black"/>
  <circle cx="277.72" cy="719.04" r="2" fill="black"/>
  <circle cx="423.02" cy="431.52" r="2" fill="black"/>
  <circle cx="511.66" cy="271.08" r="2" fill="black"/>
  <circle cx="398.46" cy="432.62" r="2" fill="black"/>
  <circle cx="262.68" cy="658.02" r="2" fill="black"/>
  <circle cx="373.78" cy="450.32" r="2" fill="black"/>
  <circle cx="349.68" cy="478.26" r="2" fill="black"/>
  <circle cx="280.34" cy="589.14" r="2" fill="black"/>
  <circle cx="310.24" cy="554.72" r="2" fill="black"/>
  <circle cx="471.0" cy="236.06" r="2" fill="black"/>
  <circle cx="412.32" cy="199.3" r="2" fill="black"/>
  <circle cx="294.92" cy="232.02" r="2" fill="black"/>
  <circle cx="187.38" cy="270.94" r="2" fill="black"/>
  <circle cx="10.0" cy="382.24" r="2" fill="black"/>
</svg>